# xmcd
#
# Track frame offsets:
#	150
#	15812
#	33555
#	52867
#	71985
#	94040
#	110460
#	123817
#	138787
#	159055
#	173145
#	193009
#	236615
#	256882
#	272977
#
# Disc length: 3863 seconds
#
# Revision: 1
# Processed by: cddbd v1.5.2PL0 Copyright (c) Steve Scherf et al.
# Submitted via: audiograbber 1.83.01
#
DISCID=bc0f150f
DTITLE=Toots Thielemans - Toots 75 Birthday Album
DYEAR=1900
DGENRE=
TTITLE0=01 Manhã  De Carnaval
TTITLE1=02 Começar De Novo
TTITLE2=03 Chanson for Victor
TTITLE3=04 Waltz for Debby
TTITLE4=05 Blue In Green
TTITLE5=06 Samba De Orfeu
TTITLE6=07 Papel Maché
TTITLE7=08 Preciso Aprender A Só Ser
TTITLE8=09 Coraçã o VagaBundo
TTITLE9=10 Travessia
TTITLE10=11 Take Five
TTITLE11=12 Bluesette
TTITLE12=13 Ne Me Quitte Pas
TTITLE13=14 Theme for Ketchups
TTITLE14=15 Changes
EXTD=
EXTT0=
EXTT1=
EXTT2=
EXTT3=
EXTT4=
EXTT5=
EXTT6=
EXTT7=
EXTT8=
EXTT9=
EXTT10=
EXTT11=
EXTT12=
EXTT13=
EXTT14=
PLAYORDER=
